<svg id="biały_duży_blob" data-name="biały duży blob" xmlns="http://www.w3.org/2000/svg" viewBox="0 0 510.74 490.51"><defs><style>.cls-1{fill:none;stroke:#fff;stroke-miterlimit:10;stroke-width:6px;}</style></defs><title>bialy blobv2</title><path class="cls-1" d="M646.6,134.6c-5.41,9.22-22.48-1.68-31.2,4-20.52,13.35-38.23,34.6-57.6,47.2-17.36,11.29-36.82,13.45-48.1,32.74,0,0-38,69.51-16.17,132.59,17.26,49.85,98.1,91.52,87.47,121.6-17.82,50.47,101.8,85.59,108.64,79.69,2.87-1.66,32.37-18.28,47.36-16.62,3.77.42,15.86,8.93,25.2,8s15.92-11.29,18.5-11.26c20.2.26,40.61,23.91,53,21,30-7,23-26.46,46-45,12.81-19.51,12.09-58.22,20-79C903.33,420,901,399,914.6,386.2c16-15.08,48.62-22.16,57.1-34.66,13.11-19.33,12.1-65,15.77-79.84,10-31.51.74-101.61-20.77-111.16-16.37-7.27-48.07-5.7-67-17-22.07-13.17-30.57-43.5-51-57C834.6,77.23,773.36,64.11,733,71.4,686.52,79.8,660.5,110.94,646.6,134.6Z" transform="translate(-483.77 -66.28)"/></svg>