<svg xmlns="http://www.w3.org/2000/svg" width="1366" height="257.812" viewBox="0 0 1366 257.812"><path d="M0,734.6c74.333-16,186.914-114.93,334.243-116.8,97.107-1.23,194.94,31.08,312.472,48,57.536,8.28,209.88-25.56,270.354-16,87.275,13.8,151.156,43.61,220.837,60.8,67.766,16.72,141.3,21,228.094,24Z" transform="translate(0 -476.788)" fill="#1f1f1f"/><path d="M1900.69,616.09c-16.2-22.52-38.15-33.42-70.57-58.34-56.78-43.64-93.71-63-124.48-60.12-5.24.49-14.48,6.49-16.29,16.8-4.37,24.78,47.24,44.15,52.11,49.67,24.47,27.79,9.26,65,35.11,91.24,32.45,32.94,94.26,22.84,121.38-2.66,3.22-3,4.53-10,4.8-17.14C1903.1,626.69,1901.85,617.69,1900.69,616.09Z" transform="translate(-576 -497.351)" fill="#1f1f1f"/></svg>