<svg id="white01" xmlns="http://www.w3.org/2000/svg" viewBox="0 0 601.19 581.3"><defs><style>.cls-1{fill:none;stroke:#fff;stroke-miterlimit:10;stroke-width:6px;}</style></defs><title>white01</title><path class="cls-1" d="M781.52,393C716.76,328.36,556.17,264.61,443,268.73c-27.87,1-39.59,49.23-61.16,37.47-12.82-7-42,11.61-70.69,58.62-10.39,17-42.37,118.34-44.83,209.55-1.75,65.14,25.21,131.12,25.21,131.12,4.67,6.44,11.95,12,20.46,17.44,5,3.18,24.7,6.62,34.13,16.17,6.6,6.69,3.73,20.25,6.29,22.27,5.13,4.08,17.12,0,21.18,4.91,15.9,19.4,10.67,56.89,23.2,66.44,30.32,23.18,42.45,1.65,77.67,9.37,28-2.72,62.64-33,87.85-41.32s41,5.21,62.62-10.42c11.52-8.92,32.28,22,65.83,19.3,28.06-2.3,68.77-38.1,85.26-46,36.66-14.56,93-76.91,84.56-104.66-6.45-21.12-33.19-50.07-38-76.7-5.63-31,15.18-62.3,11.16-92C827.67,446.15,796.46,407.25,781.52,393Z" transform="translate(-263.2 -265.54)"/></svg>