<svg xmlns="http://www.w3.org/2000/svg" width="843.344" height="847.145" viewBox="0 0 843.344 847.145"><path d="M967.018,75.129C815.66,88.458,716.245,153,654.173,254.511L643,417.261,777.076,588.327l114.213,62.962c7.933.57,16.9-1.414,26.517-4.455,5.649-1.782,20.943-14.659,34.314-15.74,9.373-.76,17.914,10.157,21.1,9.5,6.431-1.307,10.987-13.139,17.38-13.068,25.077.3,50.428,28.4,65.8,24.947,37.243-8.316,28.553-31.445,57.106-53.458,15.9-23.177,15.009-69.175,24.829-93.849s30.341-28.036,32.278-54.646c.571-14.564,37.641-10.549,57.106-38.015,16.275-22.963,15.021-77.158,19.59-94.858,12.415-37.433.906-120.7-25.8-132.042-20.322-8.636-59.676-6.771-83.177-20.2-27.386-15.645-37.951-51.676-63.314-67.714C1037.37,73.941,987.514,72.836,967.018,75.129Z" transform="matrix(0.643, 0.766, -0.766, 0.643, 91.001, -535.991)" fill="none" stroke="#fff" stroke-miterlimit="10" stroke-width="6"/></svg>