<svg xmlns="http://www.w3.org/2000/svg" width="1443.682" height="688.152" viewBox="0 0 1443.682 688.152"><path d="M1664.89,848.14c-70.33,44.07-91.08,133.74-152.69,144.86-122.13,22-278-40.6-444.8-41.6-226.78-1.36-466.93,51.08-606.8,27-24.05,0-101-34.62-126-110.2-26.42-79.87-79.34-288.23-38.4-408,10.57-30.91,45.1-116.54,128.8-124,46.45-4.14,191.73-47.45,374.4-14.2,200.31,36.47,494.86,71.31,660,21.4C1695.65,272,1800.28,763.29,1664.89,848.14Z" transform="translate(-281.185 -309.531)" fill="#1f1f1f"/></svg>